A movie about the corruption in all levels of society. A baby is born from a supposed-to-be virgin woman, so a chain of hysteria about divine intervention in the birth takes place.

A town cursed with barren women and famine is saved by a miracle birth to an old, ugly woman: the Mother. Immediately afterwards, the old woman's Daughter (Ormond) claims to have delivered the baby herself in a virgin birth. She imprisons the Mother and begins to exploit the Baby by selling blessings to the desperate townspeople of Mâcon.


Complete name : The.Baby.of.Macon.1993.720p.BluRay.x264-iNVANDRAREN.mkv
Format : Matroska
File size : 6.55 GiB
Duration : 2h 1mn
Overall bit rate : 7 695 Kbps
Encoded date : UTC 2010-08-19 14:00:07
Writing application : mkvmerge v4.1.1 ('Bouncin' Back') built on Jul 3 2010 22:54:08
Writing library : libebml v1.0.0 + libmatroska v1.0.0

Video
ID : 1
Format : AVC
Format/Info : Advanced Video Codec
Format profile : High@L4.1
Format settings, CABAC : Yes
Format settings, ReFrames : 4 frames
Muxing mode : Container profile=Unknown@4.1
Codec ID : V_MPEG4/ISO/AVC
Duration : 2h 1mn
Bit rate : 6 787 Kbps
Nominal bit rate : 6 923 Kbps
Width : 1 280 pixels
Height : 544 pixels
Display aspect ratio : 2.35:1
Frame rate : 24.000 fps
Resolution : 8 bits
Colorimetry : 4:2:0
Scan type : Progressive
Bits/(Pixel*Frame) : 0.406
Stream size : 5.78 GiB (88%)
Writing library : x264 core 98 r1649 c54c47d

Audio
ID : 2
Format : DTS
Format/Info : Digital Theater Systems
Codec ID : A_DTS
Duration : 2h 1mn
Bit rate mode : Constant
Bit rate : 755 Kbps
Channel(s) : 2 channels
Channel positions : Front: L R
Sampling rate : 48.0 KHz
Resolution : 24 bits
Stream size : 658 MiB (10%)
 
http://www.imdb.com/title/tt0106335/

Language: English
Subtitles: German, Spanish and Portuguese (srt)